PathFileType	4	(X/Y/Z)	53_1_14_p1_0-261_filt_butterworth.trc
DataRate	CameraRate	NumFrames	NumMarkers	Units	OrigDataRate	OrigDataStartFrame	OrigNumFrames
50.0	50.0	6	27	m	50.0	163	261
Frame#	Time	RHip			RKnee			RAnkle			RBigToe			RSmallToe			RHeel			LHip			LKnee			LAnkle			LBigToe			LSmallToe			LHeel			Neck			Head			Nose			RShoulder			RElbow			RWrist			RThumb			RIndex			RPinky			LShoulder			LElbow			LWrist			LThumb			LIndex			LPinky			
		X1	Y1	Z1	X2	Y2	Z2	X3	Y3	Z3	X4	Y4	Z4	X5	Y5	Z5	X6	Y6	Z6	X7	Y7	Z7	X8	Y8	Z8	X9	Y9	Z9	X10	Y10	Z10	X11	Y11	Z11	X12	Y12	Z12	X13	Y13	Z13	X14	Y14	Z14	X15	Y15	Z15	X16	Y16	Z16	X17	Y17	Z17	X18	Y18	Z18	X19	Y19	Z19	X20	Y20	Z20	X21	Y21	Z21	X22	Y22	Z22	X23	Y23	Z23	X24	Y24	Z24	X25	Y25	Z25	X26	Y26	Z26	X27	Y27	Z27	
163	3.26	0.38479641205742154	0.8617494430412757	0.7563519699198604	0.39541319463097974	0.3808636950714631	0.8686224789047037	0.3658238470981539	-0.04383692848326724	0.8891636265131739	0.32138921293708445	-0.0652805282581066	0.7407906767954995	0.37372573948745325	-0.06685795186159543	0.7436716610152234	0.33335644274865	-0.14266610778563238	0.9817721429015541	0.18549709341712292	0.8564244880400644	0.7836828832152067	0.15907041062278904	0.3813165849139899	0.8526778709794972	0.15136204512553902	-0.05710794526419423	0.8979554463027632	0.16306820938376104	-0.059537595667012694	0.7541602217438941	0.10369046446864238	-0.058859384780840046	0.7788779485905193	0.1789403655257193	-0.11457193453527734	0.9580803407952394	0.28395108620740395	1.358443084421044	0.8097989683639844	0.3154047846704503	1.6069491073187265	0.7027394709500507	0.2869448763109953	1.4706969514981185	0.6396242060399229	0.42128504585732807	1.3116567041551241	0.7677706738040558	0.5856723583148614	1.1747737346862508	0.6327973763399457	0.5322335590591193	1.3611261902238017	0.6624676772113907	0.4495770400414617	1.4404508131344171	0.7122865162816228	0.45221892616340353	1.4619717814025832	0.6864923061462466	0.48116981745231946	1.4323912016243197	0.6563223487058656	0.1554228773886052	1.2914908638266234	0.8306070807124479	0.08186254645455202	1.0282630051233004	0.8516968908655227	0.04108738565490009	0.7700055231420888	0.8130101166121627	0.06526331975800623	0.6693973604274372	0.7767533643130113	0.03194163500988406	0.6581390457644746	0.7671244269095925	0.020149122193209926	0.6675561396140393	0.7793829659757696	
164	3.28	0.384749789533125	0.8612238561999869	0.7580005860652324	0.39566459259644954	0.3808279290910358	0.869308293054311	0.3658281680344611	-0.043433979726170996	0.8894006818929302	0.32204930592261216	-0.06578380709146643	0.7430231253625001	0.3752819182191114	-0.06735844289204945	0.7467189103715764	0.3335690977299806	-0.14251731538350731	0.9823930496362806	0.1850509825573982	0.8563947703223027	0.7851069694338447	0.15877694684969812	0.38135743358438967	0.8540759706287719	0.15143480879566656	-0.05716105617689743	0.8980082495531642	0.16374691888715473	-0.06203696471091055	0.7572649371435584	0.10378978149346323	-0.059084233945414164	0.7790279471567583	0.17799356448041825	-0.11524342747415815	0.9592250072684201	0.28397754976599643	1.3584174822737074	0.8101575567873313	0.3154164274342502	1.60652670019209	0.7029807112460889	0.2872700087711791	1.4711329979427623	0.640215694066192	0.42134628112636785	1.3116661282743616	0.767929396112373	0.5832135137430315	1.1647346676885426	0.6339738204003974	0.5403363417994889	1.3527015122333597	0.6637029418494301	0.4562410574281517	1.4359168746610218	0.7086148510242234	0.4617889268558066	1.4554754340165137	0.6859223682396356	0.4907232463539613	1.4279498980842875	0.6643371922994238	0.15535203808214956	1.2915069469981397	0.8303376596480417	0.08096245682336647	1.0282499781120027	0.8517775546981886	0.03957209484093434	0.7713288722469115	0.8084798857788219	0.06528464070713587	0.6725969161447299	0.7667802738082996	0.030347122510987434	0.6619237862344612	0.7554501113184524	0.018860350191619177	0.670124286449814	0.7708743927019261	
165	3.3	0.38469504505629926	0.8608638320713325	0.7596673352182068	0.39585537551525457	0.38088558675962364	0.869824949526031	0.3658273158758911	-0.04301601052143919	0.8896426588113849	0.3228359441187091	-0.0664017501963419	0.7456214240621782	0.3773416832349098	-0.06801080098476933	0.7502095063863328	0.3338361701190956	-0.14260143826965574	0.9831866810125067	0.18469554275337088	0.8562188569484903	0.7865741736307952	0.1584126031633785	0.3813238151957672	0.8555808200638136	0.1514912986617268	-0.05719730756229581	0.8980432069312924	0.1644915151690395	-0.06415887198065273	0.7603719112054589	0.10397182229118634	-0.05881890663234274	0.7790691817177631	0.17697368302309566	-0.11531048078583345	0.9597381971614312	0.2851616184463739	1.3584558962380069	0.8105956379698869	0.31543268048377704	1.606113886006542	0.7031134149918299	0.28785208304088	1.4716177703386282	0.6406296371410929	0.42176258076552486	1.3115716747335562	0.768206221787898	0.5807271675626041	1.1525785158743336	0.6407867865575125	0.5480660132131289	1.3443759134351079	0.6619240020800121	0.4644324444271807	1.43087591384102	0.7060014002083275	0.4742585316909583	1.4480265300963011	0.6903918923560608	0.5027066282708812	1.4232822218775478	0.6703101689931719	0.15526935226994668	1.2915441201979312	0.8299154718454159	0.07995959161763913	1.0282583917908892	0.8520331718357027	0.03820199921212147	0.7728933053638456	0.8033932286539144	0.06570441182116046	0.6761579070906344	0.7558018033336574	0.029375915015985257	0.6656063841443701	0.7441647804882245	0.01791827036226255	0.6722886698819398	0.7628644369371556	
166	3.32	0.384654207501199	0.8605712399627571	0.7612962973421736	0.3959903388625977	0.3810216864095486	0.8702041961034689	0.3658247862182215	-0.04263578957688405	0.8898525696668501	0.3235791652706317	-0.06699147398944663	0.7479639217115588	0.37949656601418996	-0.06901571641988194	0.7541526591890823	0.3341634239078255	-0.14285145468465077	0.984159230872435	0.18443917571828786	0.8559488915666815	0.7879489246344892	0.15801876838484022	0.3812085030928808	0.8570686449243006	0.15153183374540902	-0.05721300762107051	0.8980557642951345	0.16526829195582066	-0.06548436396111626	0.7630919999996829	0.10420485836253263	-0.05819126585451685	0.7790307586927092	0.17592710111864168	-0.11453947753284419	0.9591293637690056	0.28735881551629994	1.3585207265037211	0.8108972244159374	0.31548184905588716	1.6059388594194952	0.7031886598841157	0.288808420357323	1.4722238084863688	0.6409219591914928	0.42246723037170086	1.311319802870898	0.768423161145642	0.5778933968625761	1.1382933696826807	0.6532099559579231	0.554839504531073	1.3349774699752035	0.6571894422576041	0.47483345121972265	1.4252952156910865	0.7056208441538435	0.4890493406789697	1.4399252140385808	0.698179221610012	0.5162394453043709	1.4166220155317997	0.6724545193764617	0.15532835394646294	1.2915129658594693	0.829996811706188	0.07942237445996475	1.0284158753126276	0.8518460781162851	0.037321648900578125	0.7746280847363585	0.7980598344061378	0.06652796488847583	0.679628022513848	0.7452298887142095	0.029152208915821855	0.6690627896532226	0.7338280803178713	0.017482861328267953	0.6739151135594245	0.7558214570219953	
167	3.34	0.3845575398885667	0.8602837511242551	0.7627107345480033	0.39606409458838704	0.3812573972902382	0.870440691872712	0.36583078210535747	-0.04233686881559509	0.890017927738874	0.32414637442678695	-0.06745538816026445	0.7498279881922704	0.38129127855359723	-0.07022692972981823	0.7580043828470268	0.3345490149434793	-0.14325240874046574	0.9853316212804534	0.18428407627513685	0.8556865357762131	0.7891227511371857	0.15764918423146476	0.3811404115770666	0.858323773288192	0.15155564446721959	-0.05721043174533097	0.8980549009485357	0.16597733598355374	-0.06577623096984997	0.7650133420743392	0.10446107588827946	-0.05729981107577786	0.778936051388362	0.17485136061428241	-0.11295845483296829	0.9573819725139915	0.29027990667941406	1.3585736684217704	0.8108584261280475	0.31555328858641796	1.6059945870014498	0.7032538386325529	0.29003463601474794	1.4730560554369265	0.6411620509830955	0.42329597110248884	1.3108943780863538	0.7684018053484986	0.5741973501823361	1.1226335432961416	0.6690790039354888	0.560489175280828	1.3232850220047272	0.6509610440752736	0.48771479573272447	1.4183170346871445	0.7065749549014577	0.5050006405523777	1.4301228401233812	0.7049800172079039	0.5297932455571105	1.4071294327854627	0.6692791385351403	0.15565951275971435	1.2913313264798487	0.8311784061428135	0.07986107841406657	1.028716689480708	0.8507899124716388	0.037027743204971104	0.7763079902745332	0.792835216693761	0.06758956208153424	0.6826660442163968	0.7361102583357658	0.029543269509696136	0.672072848141627	0.7250521198692104	0.01746382164625284	0.6751702631564924	0.7499176062133387	
168	3.36	0.38433922886601357	0.8599875390107494	0.763839955259733	0.3960548780465998	0.3816014676056253	0.8704595735155045	0.3658468212549911	-0.04216461988897763	0.890132234062061	0.32440205819730605	-0.06774058836227262	0.7511629070149255	0.3823490035491926	-0.07123201636376135	0.7605387085706266	0.3349711152148151	-0.14381075887348158	0.9867099158675047	0.18424414035916378	0.8554983524955839	0.7899325985057417	0.15736520931237327	0.38128141828615014	0.8591133176151671	0.15156289327076447	-0.05719406500856582	0.8980425489447271	0.16648495652353762	-0.06491344859633384	0.7657477078879509	0.10470800011347027	-0.05619887423810575	0.7787851739465376	0.17381968569780973	-0.11104200533304513	0.9551122643753988	0.2933314435102189	1.3585493213952702	0.8106804347465834	0.3155584856033118	1.6060874523564763	0.7033366963900813	0.29128860608228996	1.4740361692878554	0.6413238476131591	0.4241812958966591	1.3101855405977492	0.7683160452401966	0.5690606282576827	1.1064608446722148	0.6863059475906348	0.5648738492717396	1.309319457204192	0.6453037407531528	0.5026531997460602	1.4091642572605148	0.706542143754459	0.5210856055232984	1.4175768157866158	0.7071509314362059	0.5426608273220255	1.3952069931620457	0.6617421848870192	0.1562627254621609	1.2909815819457282	0.8335268471483231	0.08125756959651054	1.0289541964812072	0.8489698624403574	0.03708099834243581	0.7776936732144931	0.7876109006234597	0.06872869215882252	0.6852997770226492	0.7284036057180006	0.030509733421155677	0.6747142558837975	0.7172445351327075	0.01745766146966137	0.6764290582989142	0.7447678480154254	
